# xmcd
#
# Track frame offsets: 
#        150
#        10124
#        23223
#        43206
#        56105
#        68228
#        79493
#        95540
#        106805
#        117813
#        128762
#        139206
#
# Disc length: 2080 seconds
#
# Revision: 5
# Processed by: cddbd v1.5.2PL0 Copyright (c) Steve Scherf et al.
# Submitted via: ExactAudioCopy v1.3
#
DISCID=a4081e0c
DTITLE=Junior Brown - 12 Shades Of Brown
DYEAR=1993
DGENRE=Country
TTITLE0=My Baby Don't Dance To Nothing But Ernest Tubb
TTITLE1=Baby Let The Bad Times Be
TTITLE2=Freeborn Man
TTITLE3=They Don't Choose To Live That Way
TTITLE4=Too Many Nights In A Roadhouse
TTITLE5=Hillbilly Hula Gal
TTITLE6=A Way To Survive
TTITLE7=Broke Down South Of Dallas
TTITLE8=What's Left Just Won't Go Right
TTITLE9=Moan All Night Long
TTITLE10=Coconut Island
TTITLE11=Don't Sell The Farm
EXTD=
EXTT0=
EXTT1=
EXTT2=
EXTT3=
EXTT4=
EXTT5=
EXTT6=
EXTT7=
EXTT8=
EXTT9=
EXTT10=
EXTT11=
PLAYORDER=
